<?xml version="1.0" encoding="UTF-8"?><svg id="Layer_1" xmlns="http://www.w3.org/2000/svg" viewBox="0 0 410.48 208"><path d="M306.48,208c-27.78,0-53.9-10.82-73.54-30.46-1.37-1.37-1.37-3.58,0-4.95,1.37-1.37,3.58-1.37,4.95,0,18.31,18.32,42.67,28.41,68.58,28.41,53.49,0,97-43.51,97-97S359.97,7,306.48,7c-25.91,0-50.27,10.09-68.58,28.42-1.37,1.37-3.58,1.37-4.95,0-1.37-1.37-1.37-3.58,0-4.95C252.58,10.82,278.7,0,306.48,0c57.35,0,104,46.65,104,104s-46.65,104-104,104Z" fill="#b5b5b5"/><path d="M306.48,190.93c-23.23,0-45.05-9.04-61.47-25.47-1.46-1.46-1.46-3.84,0-5.3,1.47-1.46,3.84-1.46,5.3,0,15,15,34.94,23.27,56.16,23.27,43.8,0,79.43-35.63,79.43-79.43s-35.63-79.43-79.43-79.43c-21.22,0-41.17,8.26-56.16,23.27-1.46,1.46-3.84,1.46-5.3,0-1.46-1.46-1.46-3.84,0-5.3,16.41-16.42,38.24-25.47,61.47-25.47,47.94,0,86.93,39,86.93,86.93s-39,86.93-86.93,86.93Z" fill="#7c7c7c"/><path d="M306.48,173.87c-18.67,0-36.21-7.27-49.4-20.47-1.56-1.56-1.56-4.1,0-5.66,1.56-1.56,4.1-1.56,5.66,0,11.68,11.69,27.22,18.12,43.74,18.12,34.11,0,61.87-27.75,61.87-61.87s-27.75-61.87-61.87-61.87c-16.53,0-32.06,6.44-43.74,18.12-1.56,1.56-4.09,1.56-5.66,0-1.56-1.56-1.56-4.09,0-5.66,13.19-13.2,30.74-20.47,49.4-20.47,38.53,0,69.87,31.34,69.87,69.87s-31.34,69.87-69.87,69.87Z" fill="#0a0a0a"/><path d="M11.8,126.14c0,.63-.15,1.09-.44,1.36-.29.27-.76.41-1.39.41H1.76c-.59,0-1.03-.15-1.32-.44-.29-.29-.44-.73-.44-1.32v-43.81c0-.81.14-1.45.41-1.9.27-.45.68-.68,1.22-.68.41,0,.84.16,1.29.47.45.32.99.84,1.63,1.56l19.53,21.16,19.46-21.16c.72-.77,1.29-1.3,1.7-1.59s.81-.44,1.22-.44c1.09,0,1.63.86,1.63,2.58v43.81c0,.59-.14,1.03-.41,1.32-.27.29-.72.44-1.36.44h-8.21c-1.22,0-1.83-.59-1.83-1.76v-20.48l-9.7,11.05c-.63.68-1.13,1.15-1.49,1.42-.36.27-.72.41-1.08.41s-.72-.14-1.08-.41c-.36-.27-.84-.75-1.42-1.42l-9.7-11.05v20.48Z" fill="#ff5e1a"/><path d="M89.55,117.46c.29.27.44.72.44,1.36v7.32c0,1.18-.61,1.76-1.83,1.76h-28.55c-.59,0-1.03-.15-1.32-.44-.29-.29-.44-.73-.44-1.32v-43.95c0-.63.15-1.08.44-1.36.29-.27.73-.41,1.32-.41h28.48c1.22,0,1.83.59,1.83,1.76v7.33c0,.63-.15,1.08-.44,1.36-.29.27-.76.41-1.39.41h-17.43c-.41,0-.68.08-.81.24-.14.16-.2.42-.2.78v5.29c0,.41.07.68.2.81.14.14.41.2.81.2h15.19c.63,0,1.08.15,1.36.44.27.29.41.76.41,1.39v7.26c0,.59-.14,1.03-.41,1.32-.27.29-.72.44-1.36.44h-15.19c-.41,0-.68.08-.81.24-.14.16-.2.42-.2.78v5.56c0,.36.07.62.2.78.14.16.41.24.81.24h17.5c.63,0,1.1.14,1.39.41Z" fill="#ff5e1a"/><path d="M98.87,80.84c.29-.27.73-.41,1.32-.41h16.68c5.47,0,10.15.95,14.04,2.85,3.89,1.9,6.85,4.59,8.88,8.07s3.05,7.57,3.05,12.28-1.06,9.21-3.19,12.85c-2.13,3.64-5.23,6.46-9.33,8.44-4.09,1.99-8.96,2.98-14.62,2.98h-15.53c-.59,0-1.03-.15-1.32-.44-.29-.29-.44-.73-.44-1.32v-43.95c0-.63.15-1.08.44-1.36ZM110.44,91.52c-.14.16-.2.42-.2.78v23.74c0,.36.07.62.2.78.14.16.41.24.81.24h4.41c4.88,0,8.6-1.15,11.16-3.46,2.55-2.31,3.83-5.52,3.83-9.63,0-2.58-.57-4.82-1.7-6.71-1.13-1.9-2.79-3.37-4.98-4.41-2.19-1.04-4.87-1.56-8.04-1.56h-4.68c-.41,0-.68.08-.81.24Z" fill="#ff5e1a"/><path d="M162.36,127.5c-.29.27-.76.41-1.39.41h-8.21c-.59,0-1.03-.15-1.32-.44-.29-.29-.44-.73-.44-1.32v-43.95c0-.63.15-1.08.44-1.36.29-.27.73-.41,1.32-.41h8.21c.63,0,1.1.14,1.39.41.29.27.44.72.44,1.36v43.95c0,.63-.15,1.09-.44,1.36Z" fill="#ff5e1a"/><path d="M183.35,125.74c-.41.86-.84,1.44-1.29,1.73-.45.29-1.11.44-1.97.44h-8.27c-1,0-1.49-.32-1.49-.95,0-.41.11-.81.34-1.22l21.63-43.07c.63-1.31,1.18-2.21,1.63-2.71.45-.5.95-.75,1.49-.75s1.03.25,1.46.75c.43.5.98,1.4,1.66,2.71l21.77,43.07c.22.41.34.79.34,1.15,0,.68-.52,1.02-1.56,1.02h-8.68c-.86,0-1.5-.15-1.93-.44s-.85-.87-1.25-1.73l-12-24.69-11.87,24.69Z" fill="#ff5e1a"/><path d="M266.56,127.5c-.29.27-.76.41-1.39.41h-35.33c-.59,0-1.04-.09-1.36-.27-.32-.18-.48-.43-.48-.75,0-.5.34-1.08,1.02-1.76l15.4-16.01c2.03-2.08,3.63-3.82,4.78-5.22,1.15-1.4,2.03-2.7,2.64-3.9.61-1.2.92-2.36.92-3.49,0-1.9-.67-3.39-2-4.48-1.33-1.08-3.13-1.63-5.39-1.63-1.76,0-3.39.28-4.88.85s-3.05,1.44-4.68,2.61c-.54.41-1,.61-1.36.61-.5,0-.93-.32-1.29-.95l-3.39-5.29c-.41-.63-.61-1.13-.61-1.49,0-.5.34-1.02,1.02-1.56,4.79-3.75,10.19-5.63,16.21-5.63,3.62,0,6.83.67,9.63,2,2.8,1.33,5,3.21,6.58,5.63,1.58,2.42,2.37,5.19,2.37,8.31,0,1.85-.27,3.55-.81,5.09s-1.42,3.14-2.65,4.81c-1.22,1.67-2.96,3.73-5.22,6.17l-5.15,5.49h14.04c.63.05,1.1.2,1.39.48.29.27.44.7.44,1.29v7.32c0,.63-.15,1.09-.44,1.36Z" fill="#0a0a0a"/><path d="M289.88,127.5c-.41.27-1,.41-1.76.41h-8.41c-.59,0-1.03-.08-1.32-.24-.29-.16-.44-.44-.44-.85s.11-.84.34-1.29l16.21-34.25h-21.23c-.68,0-1.18-.15-1.49-.44-.32-.29-.47-.8-.47-1.53v-6.99c0-.68.16-1.16.47-1.46.32-.29.81-.44,1.49-.44h35.74c1.31,0,1.97.38,1.97,1.15,0,.41-.14.88-.41,1.42l-19.53,42.86c-.36.81-.75,1.36-1.15,1.63Z" fill="#0a0a0a"/><path d="M314.58,91.22c1.63-3.75,3.98-6.63,7.05-8.65,3.07-2.01,6.69-3.02,10.85-3.02s7.78.98,10.85,2.95c3.07,1.97,5.43,4.78,7.05,8.44s2.44,7.98,2.44,12.95-.81,9.54-2.44,13.29c-1.63,3.75-3.98,6.62-7.05,8.61-3.08,1.99-6.69,2.98-10.85,2.98s-7.78-.97-10.85-2.92c-3.08-1.94-5.43-4.74-7.05-8.38-1.63-3.64-2.44-7.97-2.44-12.99s.81-9.54,2.44-13.29ZM326.44,114.31c1.4,2.42,3.41,3.63,6.04,3.63,1.72,0,3.19-.56,4.41-1.7,1.22-1.13,2.15-2.74,2.78-4.82.63-2.08.95-4.5.95-7.26,0-4.34-.7-7.72-2.1-10.14-1.4-2.42-3.42-3.63-6.04-3.63s-4.64,1.22-6.04,3.66c-1.4,2.44-2.1,5.83-2.1,10.17s.7,7.65,2.1,10.07Z" fill="#0a0a0a"/></svg>