<?xml version="1.0" encoding="UTF-8"?><svg id="Layer_1" xmlns="http://www.w3.org/2000/svg" viewBox="0 0 182.47 208"><path d="M78.47,208c-27.78,0-53.9-10.82-73.54-30.46-1.37-1.37-1.37-3.58,0-4.95,1.37-1.37,3.58-1.37,4.95,0,18.31,18.32,42.67,28.41,68.58,28.41,53.49,0,97-43.51,97-97S131.96,7,78.47,7c-25.91,0-50.27,10.09-68.58,28.42-1.37,1.37-3.58,1.37-4.95,0-1.37-1.37-1.37-3.58,0-4.95C24.57,10.82,50.69,0,78.47,0c57.35,0,104,46.65,104,104s-46.65,104-104,104Z" fill="#b5b5b5"/><path d="M78.47,190.93c-23.23,0-45.05-9.04-61.47-25.47-1.46-1.46-1.46-3.84,0-5.3,1.47-1.46,3.84-1.46,5.3,0,15,15,34.94,23.27,56.16,23.27,43.8,0,79.43-35.63,79.43-79.43S122.27,24.57,78.47,24.57c-21.22,0-41.17,8.26-56.16,23.27-1.46,1.46-3.84,1.46-5.3,0-1.46-1.46-1.46-3.84,0-5.3,16.41-16.42,38.24-25.47,61.47-25.47,47.94,0,86.93,39,86.93,86.93s-39,86.93-86.93,86.93Z" fill="#7c7c7c"/><path d="M78.47,173.87c-18.67,0-36.21-7.27-49.4-20.47-1.56-1.56-1.56-4.1,0-5.66,1.56-1.56,4.1-1.56,5.66,0,11.68,11.69,27.22,18.12,43.74,18.12,34.11,0,61.87-27.75,61.87-61.87s-27.75-61.87-61.87-61.87c-16.53,0-32.06,6.44-43.74,18.12-1.56,1.56-4.09,1.56-5.66,0-1.56-1.56-1.56-4.09,0-5.66,13.19-13.2,30.74-20.47,49.4-20.47,38.53,0,69.87,31.34,69.87,69.87s-31.34,69.87-69.87,69.87Z" fill="#0a0a0a"/><path d="M38.56,127.5c-.29.27-.76.41-1.39.41H1.83c-.59,0-1.04-.09-1.36-.27-.32-.18-.48-.43-.48-.75,0-.5.34-1.08,1.02-1.76l15.4-16.01c2.03-2.08,3.63-3.82,4.78-5.22,1.15-1.4,2.03-2.7,2.64-3.9.61-1.2.92-2.36.92-3.49,0-1.9-.67-3.39-2-4.48-1.33-1.08-3.13-1.63-5.39-1.63-1.76,0-3.39.28-4.88.85s-3.05,1.44-4.68,2.61c-.54.41-1,.61-1.36.61-.5,0-.93-.32-1.29-.95l-3.39-5.29c-.41-.63-.61-1.13-.61-1.49,0-.5.34-1.02,1.02-1.56,4.79-3.75,10.19-5.63,16.21-5.63,3.62,0,6.83.67,9.63,2,2.8,1.33,5,3.21,6.58,5.63,1.58,2.42,2.37,5.19,2.37,8.31,0,1.85-.27,3.55-.81,5.09s-1.42,3.14-2.65,4.81c-1.22,1.67-2.96,3.73-5.22,6.17l-5.15,5.49h14.04c.63.05,1.1.2,1.39.48.29.27.44.7.44,1.29v7.32c0,.63-.15,1.09-.44,1.36Z" fill="#0a0a0a"/><path d="M61.87,127.5c-.41.27-1,.41-1.76.41h-8.41c-.59,0-1.03-.08-1.32-.24-.29-.16-.44-.44-.44-.85s.11-.84.34-1.29l16.21-34.25h-21.23c-.68,0-1.18-.15-1.49-.44-.32-.29-.47-.8-.47-1.53v-6.99c0-.68.16-1.16.47-1.46.32-.29.81-.44,1.49-.44h35.74c1.31,0,1.97.38,1.97,1.15,0,.41-.14.88-.41,1.42l-19.53,42.86c-.36.81-.75,1.36-1.15,1.63Z" fill="#0a0a0a"/><path d="M86.57,91.22c1.63-3.75,3.98-6.63,7.05-8.65,3.07-2.01,6.69-3.02,10.85-3.02s7.78.98,10.85,2.95c3.07,1.97,5.43,4.78,7.05,8.44s2.44,7.98,2.44,12.95-.81,9.54-2.44,13.29c-1.63,3.75-3.98,6.62-7.05,8.61-3.08,1.99-6.69,2.98-10.85,2.98s-7.78-.97-10.85-2.92c-3.08-1.94-5.43-4.74-7.05-8.38-1.63-3.64-2.44-7.97-2.44-12.99s.81-9.54,2.44-13.29ZM98.43,114.31c1.4,2.42,3.41,3.63,6.04,3.63,1.72,0,3.19-.56,4.41-1.7,1.22-1.13,2.15-2.74,2.78-4.82.63-2.08.95-4.5.95-7.26,0-4.34-.7-7.72-2.1-10.14-1.4-2.42-3.42-3.63-6.04-3.63s-4.64,1.22-6.04,3.66c-1.4,2.44-2.1,5.83-2.1,10.17s.7,7.65,2.1,10.07Z" fill="#0a0a0a"/></svg>
